<svg width="512" height="512" version="1.1" xmlns="http://www.w3.org/2000/svg" desc="Created with imagetracer.js version 1.2.6" ><path fill="rgb(0,0,0)" stroke="rgb(0,0,0)" stroke-width="1" opacity="0" d="M 0 0 L 512 0 L 512 512 L 0 512 L 0 0 Z M 173 88 L 171 89 L 168 93 L 168 104 L 173 133 L 173 139 L 174 140 L 174 146 L 175 147 L 175 153 L 176 154 L 176 156 L 156 145 L 133 138 L 121 137 L 120 136 L 85 136 L 83 137 L 80 141 L 80 151 L 82 157 L 82 162 L 84 168 L 84 173 L 86 179 L 90 205 L 71 200 L 21 200 L 19 201 L 16 205 L 16 213 L 45 312 L 35 313 L 32 317 L 32 376 L 21 376 L 19 377 L 16 381 L 16 420 L 17 422 L 21 424 L 492 424 L 494 423 L 496 420 L 496 381 L 495 379 L 492 376 L 480 376 L 480 354 L 481 353 L 481 347 L 486 318 L 486 312 L 487 311 L 487 305 L 488 304 L 488 298 L 489 297 L 489 291 L 490 290 L 490 284 L 491 283 L 491 277 L 492 276 L 492 270 L 493 269 L 493 263 L 494 262 L 494 256 L 495 255 L 495 249 L 496 248 L 496 237 L 495 235 L 492 232 L 458 232 L 444 235 Q 422 241 407 254 L 404 256 L 420 173 L 420 168 L 422 162 L 422 157 L 424 151 Q 426 142 423 139 L 420 136 L 384 136 L 383 137 L 372 138 Q 346 144 327 156 L 318 144 Q 293 115 255 99 L 233 92 L 218 89 Q 211 91 210 88 L 173 88 Z " /><path fill="rgb(0,0,0)" stroke="rgb(0,0,0)" stroke-width="1" opacity="0" d="M 186 104 L 192.5 104 L 193.5 105 L 208.5 105 L 209.5 106 L 221.5 107 L 250.5 116 Q 279.5 128.5 300 149.5 Q 321.8 171.2 334 202.5 L 341 226.5 L 342 238.5 L 343 239.5 L 344 275.5 L 343 275.5 L 309.5 233 L 300.5 232 L 297 234.5 L 239.5 307 L 236.5 306 L 211 283.5 L 211 277.5 L 210 276.5 L 210 270.5 L 209 269.5 L 209 263.5 L 208 262.5 L 208 256.5 L 207 255.5 L 207 249.5 L 206 248.5 L 206 242.5 L 205 241.5 L 205 235.5 L 204 234.5 L 204 228.5 L 203 227.5 L 203 221.5 L 202 220.5 L 202 214.5 L 201 213.5 L 201 207.5 L 200 206.5 L 200 200.5 L 199 199.5 L 199 193.5 L 198 192.5 L 198 186.5 L 197 185.5 L 197 179.5 L 196 178.5 L 196 172.5 L 195 171.5 L 195 165.5 L 194 164.5 L 194 158.5 L 193 157.5 L 193 151.5 L 192 150.5 L 192 144.5 L 191 143.5 L 186 104 Z " /><path fill="rgb(0,0,0)" stroke="rgb(0,0,0)" stroke-width="1" opacity="0" d="M 98 152 L 124.5 154 L 146.5 160 Q 165.3 167.2 179 179.5 L 192 266.5 L 189.5 265 L 187.5 264 L 124.5 264 L 119 267 L 110 219.5 L 110 214.5 L 108 208.5 L 108 203.5 L 106 197.5 L 106 192.5 L 104 186.5 L 104 181.5 L 102 175.5 L 102 170.5 L 100 164.5 L 100 159.5 L 98 152 Z " /><path fill="rgb(0,0,0)" stroke="rgb(0,0,0)" stroke-width="1" opacity="0" d="M 399.5 152 Q 406.5 150.5 406 153.5 L 404 159.5 L 404 164.5 L 402 170.5 L 402 175.5 L 400 181.5 L 400 186.5 L 398 192.5 L 398 197.5 L 396 203.5 L 396 208.5 L 394 214.5 L 394 219.5 L 392 225.5 L 392 230.5 L 390 236.5 L 383 279.5 L 376 293.5 L 370.5 309 L 360 296.5 L 360 237.5 L 359 236.5 L 357 219.5 L 347 188.5 L 337 170.5 Q 349.8 161.8 366.5 157 L 385.5 153 L 398.5 153 L 399.5 152 Z " /><path fill="rgb(0,0,0)" stroke="rgb(0,0,0)" stroke-width="1" opacity="0" d="M 35.5 216 L 68.5 217 L 81.5 220 L 94 225 L 104 277.5 L 100.5 280 L 53 280 L 35.5 216 Z " /><path fill="rgb(0,0,0)" stroke="rgb(0,0,0)" stroke-width="1" opacity="0" d="M 471.5 248 L 478 248 L 478 252.5 L 477 253.5 L 477 259.5 L 476 260.5 L 476 266.5 L 475 267.5 L 475 273.5 L 474 274.5 L 474 280.5 L 473 281.5 L 473 287.5 L 472 288.5 L 472 294.5 L 471 295.5 L 471 301.5 L 470 302.5 L 470 308.5 L 469 309.5 L 465.5 336 L 435.5 312 L 388 312 Q 395.6 285 415.5 269 Q 427.3 258.8 443.5 253 L 459.5 249 L 470.5 249 L 471.5 248 Z " /><path fill="rgb(0,0,0)" stroke="rgb(0,0,0)" stroke-width="1" opacity="0" d="M 295.5 264 L 296 312 L 258 311.5 L 295.5 264 Z " /><path fill="rgb(0,0,0)" stroke="rgb(0,0,0)" stroke-width="1" opacity="0" d="M 312.5 264 L 344 303.5 L 344 312 L 312 312 L 312.5 264 Z " /><path fill="rgb(0,0,0)" stroke="rgb(0,0,0)" stroke-width="1" opacity="0" d="M 131.5 280 L 180.5 280 L 236.5 328 L 428.5 328 L 464 356.5 L 464 375.5 L 463.5 376 L 352 376 L 352 348.5 L 349.5 345 L 347.5 344 L 308.5 344 L 305 346.5 L 304 348.5 L 304 376 L 272 376 L 272 348.5 L 269.5 345 L 267.5 344 L 228.5 344 L 225 346.5 L 224 348.5 L 224 376 L 140.5 376 L 77.5 313 L 75.5 312 L 64 312 L 64 296 L 107.5 296 L 131.5 280 Z M 165 328 L 163 329 L 160 333 L 161 342 L 165 344 L 174 343 L 176 340 L 175 331 Q 172 327 165 328 Z M 197 328 L 195 329 L 192 333 L 193 342 L 197 344 L 206 343 L 208 340 L 207 331 Q 204 327 197 328 Z M 373 344 L 371 345 L 368 349 L 369 358 L 373 360 L 382 359 L 384 356 L 383 347 Q 380 343 373 344 Z M 405 344 L 403 345 L 400 349 L 401 358 L 405 360 L 414 359 L 416 356 L 415 347 Q 412 343 405 344 Z " /><path fill="rgb(0,0,0)" stroke="rgb(0,0,0)" stroke-width="1" opacity="0" d="M 48 328 L 67.5 328 L 115 375.5 L 48 376 L 48 328 Z " /><path fill="rgb(0,0,0)" stroke="rgb(0,0,0)" stroke-width="1" opacity="0" d="M 240 360 L 256 360 L 256 376 L 240 376 L 240 360 Z " /><path fill="rgb(0,0,0)" stroke="rgb(0,0,0)" stroke-width="1" opacity="0" d="M 320 360 L 336 360 L 336 376 L 320 376 L 320 360 Z " /><path fill="rgb(0,0,0)" stroke="rgb(0,0,0)" stroke-width="1" opacity="0" d="M 32 392 L 479.5 392 L 480 392.5 L 480 408 L 32.5 408 L 32 407.5 L 32 392 Z " /><path fill="rgb(218,96,165)" stroke="rgb(218,96,165)" stroke-width="1" opacity="0.9333333333333333" d="M 172.5 88 L 209.5 88 Q 211.3 90.8 217.5 89 L 232.5 92 L 254.5 99 Q 292.8 114.8 318 143.5 L 327 156 Q 345.6 143.8 371.5 138 L 382.5 137 L 383.5 136 L 419.5 136 L 423 138.5 Q 425.7 142.3 424 150.5 L 422 156.5 L 422 161.5 L 420 167.5 L 420 172.5 L 418 178.5 L 418 183.5 L 416 189.5 L 416 194.5 L 414 200.5 L 414 205.5 L 407.5 239 L 407 233 L 392.5 233 L 392 235.5 L 390.5 238 L 390 236.5 L 392 231.5 L 392 225.5 L 406 152 L 399.5 152 L 398.5 153 L 385.5 153 L 366.5 157 Q 349.8 161.8 337 170.5 L 351 198.5 L 357 219.5 L 358 230.5 L 360 237.5 L 358 236.5 L 357.5 233 L 343 233 L 342.5 237 Q 339.6 214.9 332 197.5 Q 319.5 168.5 298.5 148 Q 276.8 126.2 245.5 114 L 221.5 107 L 209.5 106 L 208.5 105 L 193.5 105 L 192.5 104 L 186 104 L 205 238.5 L 204 238.5 L 203 233 L 188.5 233 L 188 235.5 L 187 235.5 L 180 181.5 L 175.5 176 Q 159.3 163.7 137.5 157 L 118.5 153 L 105.5 153 L 104.5 152 L 98 152 L 114 237.5 L 113 237.5 L 112 233 L 97 233 L 97 238.5 L 96 238.5 L 96 233.5 L 94 225 L 81.5 220 L 68.5 217 L 35.5 216 L 36 217.5 L 42 238.5 L 40 237.5 L 39 233 L 23 233.5 L 25 237.5 L 23 236.5 L 16 212.5 L 16 204.5 L 18.5 201 L 20.5 200 L 70.5 200 L 90 205 L 86 178.5 L 84 172.5 L 84 167.5 L 82 161.5 L 82 156.5 L 80 150.5 L 80 140.5 L 82.5 137 L 84.5 136 L 119.5 136 L 120.5 137 L 132.5 138 L 155.5 145 L 175.5 156 L 176 153.5 L 175 152.5 L 175 146.5 L 174 145.5 L 174 139.5 L 173 138.5 L 173 132.5 L 168 103.5 L 168 92.5 L 170.5 89 L 172.5 88 Z " /><path fill="rgb(218,96,165)" stroke="rgb(218,96,165)" stroke-width="1" opacity="0.9333333333333333" d="M 300.5 232 Q 308.5 230.5 311 234.5 L 313 237.5 L 307.5 233 L 300.5 233 L 295.5 238 L 297 235.5 L 298.5 233 L 300.5 232 Z " /><path fill="rgb(218,96,165)" stroke="rgb(218,96,165)" stroke-width="1" opacity="0.9333333333333333" d="M 457.5 232 L 491.5 232 L 495 234.5 L 494.5 236 L 491.5 233 L 457.5 233 L 437.5 238 L 437.5 237 L 457.5 232 Z " /><path fill="rgb(155,130,233)" stroke="rgb(155,130,233)" stroke-width="1" opacity="0.9607843137254902" d="M 23.5 233 L 38.5 233 L 39 234.5 L 44 245.5 L 53 280 L 100.5 280 L 104 277.5 L 97 243.5 L 97 233 L 111.5 233 L 112 235.5 L 114 238.5 L 119 267 L 124.5 264 L 187.5 264 L 191.5 267 L 192 265.5 L 191 264.5 L 188 238.5 L 188.5 237 L 187 236.5 L 188 233 L 202.5 233 L 203 234.5 L 206 243.5 L 211 283.5 L 215.5 288 L 236.5 306 L 239.5 307 L 294 238 L 300.5 233 L 307.5 233 L 315 239.5 L 343.5 276 L 344 256.5 L 343 253.5 L 343 239.5 L 342 237.5 L 343 233 L 357.5 233 L 358 236.5 L 360 238.5 L 360 296.5 L 370.5 309 Q 374.9 292.9 383 280.5 L 389 242.5 L 392 233 L 407 233 L 407 243.5 L 405 249.5 L 405 254.5 L 406.5 254 Q 417.5 245 431.5 239 L 435.5 239 L 451.5 234 Q 456.3 235.2 457.5 233 L 491.5 233 L 496 236 L 495 254.5 L 494 255.5 L 494 261.5 L 493 262.5 L 493 268.5 L 492 269.5 L 492 275.5 L 491 276.5 L 484 331 L 467.5 331 Q 466.5 331 467 335.5 Q 465.8 338.3 464.5 336 L 457.5 331 L 435.5 331 L 438.5 336 L 428.5 328 L 236.5 328 L 180.5 280 L 131.5 280 L 107.5 296 L 64 296 L 64 312 L 75.5 312 L 94 329.5 L 96.5 333 Q 98.8 332.3 98 334.5 L 99.5 337 L 93.5 331 L 73.5 331 L 77.5 337 L 73 334 L 70.5 330 L 67.5 328 L 48 328 L 47.5 331 L 32 331 L 32 316.5 L 34.5 313 L 45 311.5 L 24 238.5 L 24 236.5 L 23.5 233 Z M 472 248 L 471 249 L 455 250 L 436 256 L 416 269 Q 396 285 388 312 L 436 312 L 466 336 L 469 310 L 470 309 L 470 303 L 471 302 L 471 296 L 472 295 L 472 289 L 473 288 L 473 282 L 474 281 L 474 275 L 475 274 L 475 268 L 476 267 L 476 261 L 478 254 L 478 248 L 472 248 Z M 296 264 L 258 312 L 296 312 L 296 264 Z M 313 264 L 312 312 L 344 312 L 344 304 L 313 264 Z " /><path fill="rgb(155,130,233)" stroke="rgb(155,130,233)" stroke-width="1" opacity="0.9607843137254902" d="M 164.5 328 Q 172.5 326.5 175 330.5 L 176 335.5 L 175 335.5 Q 175.8 331.8 173.5 331 L 162.5 331 L 161 332.5 L 160.5 335 L 160 332.5 L 162.5 329 L 164.5 328 Z " /><path fill="rgb(155,130,233)" stroke="rgb(155,130,233)" stroke-width="1" opacity="0.9607843137254902" d="M 196.5 328 Q 204.5 326.5 207 330.5 L 208 335.5 L 207 335.5 Q 207.8 331.8 205.5 331 L 194.5 331 L 193 332.5 L 192.5 335 L 192 332.5 L 194.5 329 L 196.5 328 Z " /><path fill="rgb(155,130,233)" stroke="rgb(155,130,233)" stroke-width="1" opacity="0.9607843137254902" d="M 482.5 332 L 483 335.5 L 482 335.5 L 482.5 332 Z " /><path fill="rgb(155,130,233)" stroke="rgb(155,130,233)" stroke-width="1" opacity="0.9607843137254902" d="M 161.5 341 L 162.5 343 L 161.5 341 Z " /><path fill="rgb(155,130,233)" stroke="rgb(155,130,233)" stroke-width="1" opacity="0.9607843137254902" d="M 193.5 341 L 194.5 343 L 193.5 341 Z " /><path fill="rgb(155,130,233)" stroke="rgb(155,130,233)" stroke-width="1" opacity="0.9607843137254902" d="M 226.5 345 L 225.5 347 L 226.5 345 Z " /><path fill="rgb(155,130,233)" stroke="rgb(155,130,233)" stroke-width="1" opacity="0.9607843137254902" d="M 306.5 345 L 305.5 347 L 306.5 345 Z " /><path fill="rgb(70,168,232)" stroke="rgb(70,168,232)" stroke-width="1" opacity="0.9882352941176471" d="M 70.5 330 Q 72 333.5 73.5 331 L 93.5 331 L 94.5 330 L 97.5 335 L 98.5 334 L 140.5 376 L 223.5 376 L 224 375.5 L 224 348.5 L 228.5 344 L 267.5 344 L 271 346.5 L 272 348.5 L 272 376 L 304 376 L 304 348.5 L 308.5 344 L 347.5 344 L 351 346.5 L 352 348.5 L 352 376 L 463.5 376 L 464 375.5 L 464 356.5 L 441 339 L 441 337 Q 438.3 338.1 439 335.5 L 436 334.5 L 437 333.5 L 435.5 331 L 457.5 331 L 465.5 337 Q 468.3 335.6 467 331 L 484 331.5 L 482 332 L 483 336.5 L 482 339.5 L 482 345.5 L 480 353.5 L 480 376 L 491.5 376 L 495 378.5 L 496 380.5 L 496 391 L 16.5 391 L 16 390.5 L 16 380.5 L 18.5 377 L 20.5 376 L 32 376 L 32 331 L 48 331 L 48 376 L 114.5 376 L 74 334.5 Q 76.2 333.2 73.5 332 L 72.5 333 L 70.5 330 Z M 240 360 L 240 376 L 256 376 L 256 360 L 240 360 Z M 320 360 L 320 376 L 336 376 L 336 360 L 320 360 Z " /><path fill="rgb(70,168,232)" stroke="rgb(70,168,232)" stroke-width="1" opacity="0.9882352941176471" d="M 162.5 331 L 173.5 331 L 175 332.5 L 176 339.5 L 174 343 Q 171.3 344.9 164.5 344 L 160 339.5 L 160 335.5 L 162.5 331 Z " /><path fill="rgb(70,168,232)" stroke="rgb(70,168,232)" stroke-width="1" opacity="0.9882352941176471" d="M 194.5 331 L 205.5 331 L 207 332.5 L 208 339.5 L 206 343 Q 203.3 344.9 196.5 344 L 192 339.5 L 192 335.5 L 194.5 331 Z " /><path fill="rgb(70,168,232)" stroke="rgb(70,168,232)" stroke-width="1" opacity="0.9882352941176471" d="M 372.5 344 Q 380.5 342.5 383 346.5 L 384 355.5 L 381.5 359 L 372.5 360 L 369 357.5 L 368 348.5 L 369 346 L 372.5 344 Z " /><path fill="rgb(70,168,232)" stroke="rgb(70,168,232)" stroke-width="1" opacity="0.9882352941176471" d="M 404.5 344 Q 412.5 342.5 415 346.5 L 416 355.5 L 413.5 359 L 404.5 360 L 401 357.5 L 400 348.5 L 401 346 L 404.5 344 Z " /><path fill="rgb(23,189,231)" stroke="rgb(23,189,231)" stroke-width="1" opacity="0.996078431372549" d="M 16 414 L 495.5 414 Q 496.6 414.1 496 419.5 L 493.5 423 L 491.5 424 L 20.5 424 L 17 421.5 L 16 414 Z " /><path fill="rgb(32,185,231)" stroke="rgb(32,185,231)" stroke-width="1" opacity="1" d="M 16 391 L 495.5 391 L 496 391.5 L 496 414 L 16.5 414 L 16 413.5 L 16 391 Z M 32 392 L 32 408 L 33 408 L 480 408 L 480 393 L 480 392 L 32 392 Z " /></svg>